#!OML:ASF X:\für Bonn\!DataBase\2005_08_12_Daniel\c3d\Daniel.ASF
:FULLY-SPECIFIED
:DEGREES
199
root -4.43604 17.2201 -1.16162 -16.8838 -89.0673 8.18712
lowerback 18.6332 -2.06794 2.49035
upperback 1.02033 -2.49791 -1.96386
thorax -9.55435 -1.38924 -2.88995
lowerneck 7.08219 2.31578 -1.03543
upperneck 5.5426 2.87734 -0.942228
head 0.53698 1.34854 -0.162137
rclavicle -7.29291e-015 -1.98785e-014
rhumerus 60.2533 -12.0777 -134.047
rradius 7.54414
rwrist 100.407
rhand -22.8136 8.45577
rfingers 7.12502
rthumb 3.62306 -21.4932
lclavicle -7.29291e-015 -1.98785e-014
lhumerus 56.9996 5.40218 100.482
lradius 9.60964
lwrist -75.1587
lhand -15.1098 2.51089
lfingers 7.12502
lthumb 11.0589 32.1995
rfemur 7.90733 16.2853 21.8729
rtibia 20.4107
rfoot 328.447 -22.5024
rtoes -5.18891
lfemur -542.028 200.935 -200.483
ltibia 34.3876
lfoot -31.3589 16.653
ltoes 0.00472102
200
root -4.44507 17.2157 -1.16093 -22.0748 -89.1014 13.3496
lowerback 18.3843 -2.03721 2.42356
upperback 1.02952 -2.47934 -2.00671
thorax -9.40338 -1.37681 -2.90894
lowerneck 6.92019 2.28708 -0.930262
upperneck 5.74495 2.85206 -1.09596
head 0.627965 1.33421 -0.221958
rclavicle 4.1869e-015 3.18055e-015
rhumerus 60.1989 -11.9921 -133.95
rradius 7.53178
rwrist 100.257
rhand -22.8879 8.39291
rfingers 7.12502
rthumb 3.55132 -21.5573
lclavicle 4.1869e-015 3.18055e-015
lhumerus 57.0632 5.35133 100.483
lradius 9.58432
lwrist -75.3353
lhand -15.0984 2.72041
lfingers 7.12502
lthumb 11.0698 32.4085
rfemur 8.13376 17.1242 22.1039
rtibia 20.3739
rfoot 327.755 -22.8846
rtoes -4.80743
lfemur -541.897 201.019 -200.637
ltibia 34.3553
lfoot -31.4972 16.7479
ltoes 0.0580913
201
root -4.45306 17.212 -1.16034 -27.7332 -89.1288 18.9995
lowerback 18.1336 -2.00531 2.3315
upperback 1.02436 -2.46148 -2.02998
thorax -9.26528 -1.36324 -2.89169
lowerneck 6.86059 2.26944 -0.861315
upperneck 5.87415 2.83615 -1.22465
head 0.679804 1.3247 -0.27041
rclavicle 2.09345e-014 5.56597e-015
rhumerus 60.1542 -11.8802 -133.838
rradius 7.44225
rwrist 99.988
rhand -22.9166 8.32637
rfingers 7.12502
rthumb 3.52359 -21.6243
lclavicle 2.09345e-014 5.56597e-015
lhumerus 57.0953 5.34166 100.493
lradius 9.56657
lwrist -75.5101
lhand -15.069 2.93709
lfingers 7.12502
lthumb 11.0982 32.6236
rfemur 8.29337 17.8131 22.2708
rtibia 20.3791
rfoot 327.119 -23.1245
rtoes -4.441
lfemur -541.821 200.975 -200.739
ltibia 34.3304
lfoot -31.5676 16.7311
ltoes 0.0510107
202
root -4.45844 17.2107 -1.15909 -32.9703 -89.1314 24.2566
lowerback 17.8639 -1.9882 2.26167
upperback 1.03353 -2.45944 -2.0616
thorax -9.1033 -1.35819 -2.89248
lowerneck 6.77937 2.26779 -0.870936
upperneck 5.99736 2.83513 -1.26488
head 0.730946 1.3215 -0.279484
rclavicle 6.76489e-015 2.74323e-014
rhumerus 60.1504 -11.7434 -133.74
rradius 7.30407
rwrist 99.6605
rhand -22.8925 8.28776
rfingers 7.12502
rthumb 3.54694 -21.6625
lclavicle 6.76489e-015 2.74323e-014
lhumerus 57.1763 5.31809 100.5
lradius 9.53018
lwrist -75.6569
lhand -14.9948 3.10783
lfingers 7.12502
lthumb 11.1698 32.7905
rfemur 8.37442 18.3901 22.3828
rtibia 20.4186
rfoot 326.531 -23.2736
rtoes -4.08818
lfemur -541.809 200.87 -200.8
ltibia 34.3082
lfoot -31.5626 16.6872
ltoes 0.105819
203
root -4.46359 17.2088 -1.15838 -38.0649 -89.147 29.3722
lowerback 17.6069 -1.96779 2.18665
upperback 1.03488 -2.45193 -2.08037
thorax -8.95579 -1.35019 -2.87736
lowerneck 6.77055 2.27887 -0.908587
upperneck 6.0763 2.84683 -1.28368
head 0.75636 1.32467 -0.278753
rclavicle 1.67165e-014 6.75868e-015
rhumerus 60.133 -11.6027 -133.633
rradius 7.15419
rwrist 99.2398
rhand -22.7736 8.31519
rfingers 7.12502
rthumb 3.66175 -21.6331
lclavicle 1.67165e-014 6.75868e-015
lhumerus 57.2805 5.31464 100.509
lradius 9.42947
lwrist -75.7703
lhand -14.8722 3.33492
lfingers 7.12502
lthumb 11.288 33.0112
rfemur 8.40282 18.8205 22.4542
rtibia 20.491
rfoot 326.108 -23.3809
rtoes -3.8964
lfemur -541.808 200.684 -200.822
ltibia 34.284
lfoot -31.5241 16.5881
ltoes 6.83939e-005
204
root -4.46718 17.2078 -1.15728 -42.3557 -89.1617 33.6813
lowerback 17.3802 -1.9465 2.14223
upperback 1.02778 -2.43631 -2.09946
thorax -8.83518 -1.33991 -2.88138
lowerneck 6.82717 2.28977 -0.97801
upperneck 6.13494 2.85278 -1.25
head 0.763797 1.32469 -0.257739
rclavicle 2.79914e-014 -3.97569e-015
rhumerus 60.095 -11.5209 -133.499
rradius 7.01004
rwrist 98.8503
rhand -22.602 8.34507
rfingers 7.12502
rthumb 3.82749 -21.6003
lclavicle 2.79914e-014 -3.97569e-015
lhumerus 57.3439 5.28545 100.528
lradius 9.33462
lwrist -75.8513
lhand -14.7285 3.49354
lfingers 7.12502
lthumb 11.4266 33.1622
rfemur 8.38923 19.0595 22.4755
rtibia 20.5808
rfoot 325.825 -23.4029
rtoes -3.78163
lfemur -541.825 200.448 -200.808
ltibia 34.2624
lfoot -31.4619 16.4417
ltoes -0.00603667
